<?xml version="1.0" encoding="UTF-8"?>
<svg width="78px" height="90px" viewBox="0 0 78 90" version="1.1" xmlns="http://www.w3.org/2000/svg" xmlns:xlink="http://www.w3.org/1999/xlink">
    <!-- Generator: Sketch 43.1 (39012) - http://www.bohemiancoding.com/sketch -->
    <title>noun_74533_cc</title>
    <desc>Created with Sketch.</desc>
    <defs></defs>
    <g id="Page-1" stroke="none" stroke-width="1" fill="none" fill-rule="evenodd">
        <g id="noun_74533_cc" fill-rule="nonzero" fill="#000000">
            <path d="M77.381,30.799 C77.381,24.621 72.869,19.326 66.901,18.225 C66.292,11.731 60.811,6.634 54.163,6.634 C54.108,6.634 54.05,6.635 53.995,6.635 C51.76,2.574 47.463,0 42.791,0 C38.453,0 34.439,2.194 32.085,5.788 C31.548,5.72 31.007,5.686 30.471,5.686 C23.417,5.686 17.677,11.425 17.677,18.479 C17.677,23.186 20.236,27.298 24.031,29.517 L24.573,51.093 C22.38,47.188 18.201,44.538 13.414,44.538 C6.36,44.538 0.62,50.276 0.62,57.331 C0.62,64.384 6.36,70.125 13.414,70.125 C13.663,70.125 13.907,70.107 14.152,70.094 C15.927,71.939 18.026,74.087 20.364,76.407 L21.527,77.566 C28.232,84.257 34.024,90.041 45.577,89.999 C57.546,89.955 61.528,83.936 64.581,77.771 C67.175,72.534 67.477,68.213 68.132,58.75 C68.224,57.436 68.32,56.021 68.433,54.487 C68.736,50.346 69.038,46.261 69.308,42.659 C74.027,40.781 77.381,36.183 77.381,30.799 Z M3.462,57.333 C3.462,51.846 7.927,47.383 13.413,47.383 C18.803,47.383 23.196,51.694 23.349,57.048 L19.289,52.851 C17.815,51.387 15.865,50.584 13.796,50.592 C11.728,50.6 9.784,51.415 8.321,52.89 C5.291,55.942 5.296,60.874 8.276,63.832 C8.297,63.854 9.387,65.062 11.246,67.037 C6.798,66.046 3.462,62.075 3.462,57.333 Z M65.293,58.555 C64.664,67.634 64.377,71.776 62.033,76.511 C59.156,82.315 55.933,87.12 45.564,87.157 C35.195,87.195 30.048,82.057 23.535,75.556 L22.366,74.391 C20.535,72.573 18.854,70.864 17.358,69.322 C16.597,68.536 15.885,67.797 15.229,67.108 L15.229,67.108 C12.235,63.971 10.396,61.937 10.334,61.872 C9.402,60.945 8.89,59.71 8.891,58.393 C8.893,57.073 9.407,55.831 10.339,54.891 C11.267,53.957 12.499,53.44 13.807,53.435 C15.117,53.429 16.352,53.94 17.267,54.849 L23.756,61.562 L24.959,62.807 L24.959,62.807 L25.248,63.105 C25.653,63.527 26.279,63.659 26.818,63.432 C27.359,63.205 27.705,62.677 27.691,62.092 L26.597,18.551 C26.587,16.04 28.142,14.31 30.376,14.302 C32.609,14.295 34.177,16.101 34.187,18.663 L35.232,45.311 C35.262,46.077 36.006,46.916 36.666,46.915 C37.325,46.912 38.058,46.056 38.073,45.288 L38.783,12.318 C38.776,10.192 40.384,8.522 42.442,8.514 C44.467,8.507 46.003,10.131 46.01,12.291 L46.055,25.147 L46.055,25.147 L46.067,28.094 L46.12,42.141 C46.12,42.912 46.776,44.034 47.548,44.031 C48.319,44.029 48.925,43.198 48.962,42.439 L49.482,31.309 L49.482,31.309 L49.537,30.16 L50.064,18.91 C50.056,16.891 51.931,15.113 54.078,15.104 C56.168,15.096 57.875,16.79 57.883,18.836 L57.373,37.641 L57.373,37.641 L57.275,41.273 L57.275,41.273 L57.046,49.639 C57.026,50.406 57.616,51.049 58.382,51.095 C59.128,51.12 59.812,50.574 59.884,49.81 L60.687,41.268 L60.804,39.998 L60.804,39.998 L61.708,30.376 C61.714,30.33 61.714,30.284 61.714,30.238 C61.708,28.67 62.98,27.39 64.546,27.384 C66.097,27.379 67.366,28.622 67.4,30.167 C67.355,30.753 66.998,35.438 66.525,41.758 C66.517,41.864 66.509,41.97 66.502,42.077 C66.227,45.769 65.912,49.994 65.598,54.279 C65.482,55.819 65.385,57.237 65.293,58.555 Z M69.551,39.41 C69.955,34.011 70.239,30.32 70.239,30.32 C70.241,30.283 70.243,30.245 70.243,30.207 C70.231,27.071 67.671,24.53 64.536,24.541 C62.972,24.546 61.552,25.189 60.526,26.22 L60.725,18.868 C60.711,15.21 57.725,12.245 54.069,12.258 C52.008,12.265 50.131,13.201 48.866,14.63 L48.856,12.278 C48.844,8.559 46.022,5.654 42.436,5.667 C38.782,5.68 35.932,8.605 35.944,12.288 L35.897,14.427 C34.721,12.562 32.723,11.388 30.369,11.396 C26.586,11.41 23.743,14.476 23.758,18.559 L23.944,25.962 C21.851,24.139 20.523,21.464 20.523,18.478 C20.523,12.991 24.987,8.527 30.473,8.527 C31.155,8.527 31.841,8.598 32.518,8.74 C33.129,8.87 33.755,8.579 34.055,8.03 C35.803,4.83 39.152,2.841 42.792,2.841 C46.683,2.841 50.237,5.138 51.851,8.693 C52.101,9.243 52.665,9.576 53.275,9.521 C53.568,9.495 53.865,9.475 54.166,9.475 C59.65,9.475 64.115,13.938 64.119,19.345 C64.115,19.38 64.113,19.439 64.113,19.473 C64.113,20.213 64.681,20.829 65.418,20.89 C70.531,21.312 74.539,25.663 74.539,30.797 C74.537,34.477 72.527,37.689 69.551,39.41 Z" id="Shape"></path>
        </g>
    </g>
</svg>